#!OML:ASF I:\Actors\actors\Patient Classification 2\Patient 1\Session 1\actor1.ASF
:FULLY-SPECIFIED
:DEGREES
605
root -1.05274 18.9199 4.71715 22.6859 -9.36473 4.57875
lowerback 23.8753 -4.80405 14.7964
upperback 2.26182 -1.57987 6.72243
thorax -11.0731 -1.23513 -0.210762
lowerneck -13.3003 2.74828 4.49771
upperneck -5.65375 2.93811 -11.0604
head 0.785142 1.19311 -4.35615
rclavicle 5.88403e-014 -1.04958e-013
rhumerus 44.6204 47.6125 -74.1308
rradius 146.019
rwrist -49.8545
rhand -9.7007 -26.2499
rfingers 7.12502
rthumb 16.2719 -55.5872
lclavicle 5.88403e-014 -1.04958e-013
lhumerus 44.9885 -51.1607 71.6683
lradius 147.549
lwrist 52.2793
lhand -22.9392 -55.919
lfingers 7.12502
lthumb 3.50184 -25.968
rfemur -29.3075 7.49675 5.7241
rtibia 13.3412
rfoot -19.3601 -15.2041
rtoes -4.70756
lfemur -31.3175 3.51887 -18.1855
ltibia 20.0387
lfoot -13.0802 9.67664
ltoes -55.2667
606
root -1.05628 18.9195 4.71259 22.7055 -9.46322 4.59161
lowerback 23.904 -4.00812 15.7351
upperback 2.42104 -0.480263 5.42112
thorax -10.7775 -0.791339 -2.60006
lowerneck -14.9991 2.21171 8.02458
upperneck -4.73723 1.66304 -11.8088
head 1.20325 0.414317 -4.83579
rclavicle 9.54166e-014 -2.38542e-014
rhumerus 43.3413 44.5003 -75.558
rradius 145.552
rwrist -48.936
rhand -8.61001 -24.7806
rfingers 7.12502
rthumb 17.3218 -54.0287
lclavicle 9.54166e-014 -2.38542e-014
lhumerus 47.3771 -53.3152 69.5208
lradius 147.599
lwrist 53.8027
lhand -22.6807 -55.1237
lfingers 7.12502
lthumb 3.75147 -25.177
rfemur -29.4393 7.5313 5.69821
rtibia 13.4545
rfoot -19.3248 -15.1914
rtoes -4.88197
lfemur -31.3644 3.63744 -18.2384
ltibia 20.0726
lfoot -13.056 9.6503
ltoes -55.306
607
root -1.0576 18.9187 4.70863 22.7492 -9.50898 4.6141
lowerback 23.9264 -3.48809 16.5625
upperback 2.70954 0.236783 4.29003
thorax -10.3113 -0.486373 -4.59832
lowerneck -17.073 2.04775 11.1583
upperneck -3.95479 0.782279 -12.3253
head 1.67797 -0.15251 -5.58856
rclavicle 1.43125e-014 -6.36111e-015
rhumerus 43.1867 42.8653 -75.4708
rradius 144.985
rwrist -44.7627
rhand -10.5208 -23.3079
rfingers 7.12502
rthumb 15.4821 -52.7079
lclavicle 1.43125e-014 -6.36111e-015
lhumerus 50.1536 -54.787 66.6283
lradius 147.622
lwrist 54.4984
lhand -22.5894 -54.9729
lfingers 7.12502
lthumb 3.83964 -25.0277
rfemur -29.573 7.53071 5.66266
rtibia 13.5531
rfoot -19.3005 -15.1829
rtoes -4.82267
lfemur -31.4504 3.63247 -18.2544
ltibia 20.1041
lfoot -13.0701 9.65888
ltoes -55.1811
608
root -1.05876 18.9177 4.7046 22.786 -9.56899 4.63746
lowerback 23.9563 -3.32438 16.8032
upperback 2.94085 0.433371 3.84842
thorax -10.0047 -0.384008 -5.30697
lowerneck -18.2291 2.15258 12.5938
upperneck -3.69854 0.536282 -12.6502
head 1.90361 -0.340132 -5.96081
rclavicle 2.54444e-014 2.54444e-014
rhumerus 44.2658 42.0576 -75.2878
rradius 145.263
rwrist -42.9803
rhand -11.7308 -23.6462
rfingers 7.12502
rthumb 14.3164 -53.1327
lclavicle 2.54444e-014 2.54444e-014
lhumerus 51.7974 -55.1309 64.7054
lradius 147.563
lwrist 53.896
lhand -22.3222 -55.3632
lfingers 7.12502
lthumb 4.09762 -25.4228
rfemur -29.6954 7.53279 5.62321
rtibia 13.6391
rfoot -19.279 -15.1659
rtoes -4.80777
lfemur -31.5178 3.62815 -18.2781
ltibia 20.122
lfoot -13.0808 9.72629
ltoes -55.1571
609
root -1.05942 18.9177 4.70121 22.7762 -9.64719 4.64763
lowerback 23.9899 -3.60753 16.2515
upperback 2.8451 0.028068 4.56809
thorax -10.2313 -0.551987 -4.04429
lowerneck -17.0361 2.17535 10.5968
upperneck -4.30671 1.03249 -12.1506
head 1.59155 -0.0144172 -5.4219
rclavicle 1.27222e-014 5.24792e-014
rhumerus 44.8439 43.4836 -74.4363
rradius 145.122
rwrist -41.53
rhand -13.1261 -23.7115
rfingers 7.12502
rthumb 12.9717 -53.2883
lclavicle 1.27222e-014 5.24792e-014
lhumerus 49.9636 -53.8799 66.7237
lradius 147.121
lwrist 50.3898
lhand -21.9301 -55.5591
lfingers 7.12502
lthumb 4.47625 -25.6264
rfemur -29.7643 7.56624 5.59461
rtibia 13.7161
rfoot -19.2533 -15.1592
rtoes -4.91513
lfemur -31.5148 3.67702 -18.317
ltibia 20.1332
lfoot -13.0827 9.78609
ltoes -55.1912
